# xmcd
#
# Track frame offsets: 
#        150
#        42402
#        78455
#        121532
#        156025
#        195930
#        229187
#        264912
#        295392
#        325897
#
# Disc length: 4726 seconds
#
# Revision: 3
# Processed by: cddbd v1.5.2PL0 Copyright (c) Steve Scherf et al.
# Submitted via: ExactAudioCopy v1.0b1
#
DISCID=7c12740a
DTITLE=Various Artist - Cosmic-Trance - Chapter 1 CD1
DYEAR=1997
DGENRE=Trance, Goa Trance, Progressive Trance
TTITLE0=Dissidenten - Jungle Book Pt. II (Sven Vath's Mantra-Trance Mi
TTITLE0=x)
TTITLE1=Human Beings - Phase (Speedy J Remix)
TTITLE2=Tata Box Inhibitors - Insane (It's Getting Too Much)
TTITLE3=Astralasia - The Seven Pointed Star
TTITLE4=Capricorn - Walking On The Moon (Jamez Remix)
TTITLE5=Spicelab - Feathers (Terry Lee Brown Junior Remix)
TTITLE6=OJ Project - Locator
TTITLE7=Liquid Art - Liquid Art
TTITLE8=Framic - Status X
TTITLE9=Razor's Edge - Sleepless (Underground Contribution Mix)
EXTD=
EXTT0=
EXTT1=
EXTT2=
EXTT3=
EXTT4=
EXTT5=
EXTT6=
EXTT7=
EXTT8=
EXTT9=
PLAYORDER=
